<svg xmlns="http://www.w3.org/2000/svg" width="587.96" height="90.8" viewBox="0 0 587.96 90.8"><g transform="translate(-630.6 -322)"><path d="M44.4,1.8A41.98,41.98,0,0,1,28.86-1.11,37.778,37.778,0,0,1,15.81-9.72a40.531,40.531,0,0,1-8.94-14.1A53.184,53.184,0,0,1,3.6-43.2q0-14.34,5.49-24.39A38.283,38.283,0,0,1,23.85-82.92,40.787,40.787,0,0,1,44.4-88.2q16.68,0,26.22,7.74T83.4-58.56l-16.68,2.4a25.27,25.27,0,0,0-7.65-12.09q-5.31-4.53-13.59-4.59-8.22-.12-13.68,3.54a22.133,22.133,0,0,0-8.19,10.38A41.587,41.587,0,0,0,20.88-43.2a40.663,40.663,0,0,0,2.73,15.6A22.2,22.2,0,0,0,31.8-17.34q5.46,3.66,13.68,3.78a23.112,23.112,0,0,0,10.11-1.92,18.807,18.807,0,0,0,7.65-6.42,28.427,28.427,0,0,0,4.44-11.22H54v-12.6H85.08a26.454,26.454,0,0,1,.18,2.76q.06,1.98.06,2.28a46.672,46.672,0,0,1-5.04,22.02A37.179,37.179,0,0,1,66.06-3.63Q56.88,1.8,44.4,1.8ZM88.92,0l26.4-86.4h24.36L166.08,0h-16.8L125.76-76.2h3.12L105.72,0Zm15.84-18V-33.24h45.6V-18ZM189.72,0V-71.16H162.48V-86.4h70.8v15.24H206.04V0Zm53.16,0V-86.4h56.4v15.24H259.2v18.48h32.88v15.24H259.2v22.2h40.08V0Z" transform="translate(627 411)"/><g transform="translate(7.436 4.376)"><path d="M804.733,665.911h32v-16l32,24-32,24v-16h-32Z" transform="translate(166.831 -330.287)" fill="none" stroke="#000" stroke-width="2"/><path d="M804.733,665.911h32v-16l32,24-32,24v-16h-32Z" transform="translate(1802.297 1049.535) rotate(180)" stroke="#000" stroke-width="2"/></g><path d="M75.96,1.8,50.76-23.28,60.84-33.36,85.92-8.28Zm-30.48,0q-12.96,0-22.35-5.64A37.569,37.569,0,0,1,8.67-19.62Q3.6-29.76,3.6-43.2T8.67-66.78A37.569,37.569,0,0,1,23.13-82.56q9.39-5.64,22.35-5.64t22.35,5.64A37.569,37.569,0,0,1,82.29-66.78q5.07,10.14,5.07,23.58T82.29-19.62A37.569,37.569,0,0,1,67.83-3.84Q58.44,1.8,45.48,1.8Zm0-15.36q8.22.12,13.68-3.54a22.133,22.133,0,0,0,8.19-10.38A41.587,41.587,0,0,0,70.08-43.2a40.663,40.663,0,0,0-2.73-15.6,22.2,22.2,0,0,0-8.19-10.26q-5.46-3.66-13.68-3.78T31.8-69.3a22.133,22.133,0,0,0-8.19,10.38A41.587,41.587,0,0,0,20.88-43.2a40.663,40.663,0,0,0,2.73,15.6A22.2,22.2,0,0,0,31.8-17.34Q37.26-13.68,45.48-13.56ZM99.36,0V-86.4h36.48q1.26,0,3.39.09a28.736,28.736,0,0,1,3.81.39,26.735,26.735,0,0,1,12.69,5.1,23.088,23.088,0,0,1,7.29,9.81,35.5,35.5,0,0,1,2.34,13.17q0,10.86-5.4,18.57t-16.92,9.51l-7.2.48H115.68V0Zm48.72,0L131.04-35.16l16.8-3.24L166.56,0Zm-32.4-44.52h19.44q1.26,0,2.76-.12a14.154,14.154,0,0,0,2.76-.48,9.848,9.848,0,0,0,5.1-3.03,12.036,12.036,0,0,0,2.49-4.74,19.385,19.385,0,0,0,.69-4.95,19.385,19.385,0,0,0-.69-4.95,12.036,12.036,0,0,0-2.49-4.74,9.848,9.848,0,0,0-5.1-3.03,14.153,14.153,0,0,0-2.76-.48q-1.5-.12-2.76-.12H115.68Z" transform="translate(1052 411)"/></g></svg>